<svg id="visual" viewBox="0 0 1350 650" width="1350" height="650" xmlns="http://www.w3.org/2000/svg" xmlns:xlink="http://www.w3.org/1999/xlink" version="1.1"><rect x="0" y="0" width="1350" height="650" fill="#FFFFFF"></rect><defs><linearGradient id="grad1_0" x1="51.9%" y1="100%" x2="100%" y2="0%"><stop offset="8.461538461538456%" stop-color="#ffffff" stop-opacity="1"></stop><stop offset="91.53846153846153%" stop-color="#ffffff" stop-opacity="1"></stop></linearGradient></defs><defs><linearGradient id="grad2_0" x1="0%" y1="100%" x2="48.1%" y2="0%"><stop offset="8.461538461538456%" stop-color="#ffffff" stop-opacity="1"></stop><stop offset="91.53846153846153%" stop-color="#ffffff" stop-opacity="1"></stop></linearGradient></defs><g transform="translate(1350, 650)"><path d="M-650 0C-617.7 -104.2 -585.3 -208.4 -535.2 -309C-485.1 -409.6 -417.2 -506.7 -325 -562.9C-232.8 -619.2 -116.4 -634.6 0 -650L0 0Z" fill="#244ce4"></path></g><g transform="translate(0, 0)"><path d="M650 0C635.2 117.5 620.4 234.9 562.9 325C505.5 415.1 405.4 477.8 304.5 527.4C203.6 577 101.8 613.5 0 650L0 0Z" fill="#244ce4"></path></g></svg>