<svg id="visual" viewBox="0 0 900 600" width="900" height="600" xmlns="http://www.w3.org/2000/svg" xmlns:xlink="http://www.w3.org/1999/xlink" version="1.1"><rect x="0" y="0" width="900" height="600" fill="#FFFFFF"></rect><defs><linearGradient id="grad1_0" x1="33.3%" y1="100%" x2="100%" y2="0%"><stop offset="20%" stop-color="#ffffff" stop-opacity="1"></stop><stop offset="80%" stop-color="#ffffff" stop-opacity="1"></stop></linearGradient></defs><defs><linearGradient id="grad2_0" x1="0%" y1="100%" x2="66.7%" y2="0%"><stop offset="20%" stop-color="#ffffff" stop-opacity="1"></stop><stop offset="80%" stop-color="#ffffff" stop-opacity="1"></stop></linearGradient></defs><g transform="translate(900, 600)"><path d="M-459.7 0C-432.6 -71.3 -405.6 -142.5 -370.7 -214C-335.7 -285.5 -292.9 -357.1 -229.9 -398.1C-166.8 -439.1 -83.4 -449.4 0 -459.7L0 0Z" fill="#244ce4"></path></g><g transform="translate(0, 0)"><path d="M459.7 0C446.5 79.3 433.3 158.5 396.6 229C360 299.5 299.9 361.1 229.9 398.1C159.8 435.1 79.9 447.4 0 459.7L0 0Z" fill="#244ce4"></path></g></svg>